<mxfile host="app.diagrams.net" modified="2024-06-23T21:16:32.701Z" agent="Mozilla/5.0 (Windows NT 10.0; Win64; x64) AppleWebKit/537.36 (KHTML, like Gecko) Chrome/126.0.0.0 Safari/537.36" etag="X1dKXSLEA3dMZ6jWoWQc" version="24.6.2" type="google">
  <diagram name="Page-1" id="6YNMcKXlKXxvAg45cIZV">
    <mxGraphModel grid="1" page="1" gridSize="10" guides="1" tooltips="1" connect="1" arrows="1" fold="1" pageScale="1" pageWidth="850" pageHeight="1100" math="0" shadow="0">
      <root>
        <mxCell id="0" />
        <mxCell id="1" parent="0" />
        <mxCell id="mB4tVl4yTqJX-YMwdEVt-36" value="&lt;span style=&quot;font-size: 20px;&quot;&gt;&lt;b&gt;&lt;i&gt;ejercicio_19_PersonajesDeJuegosDeRol&lt;/i&gt;&lt;/b&gt;&lt;/span&gt;" style="text;html=1;align=center;verticalAlign=middle;resizable=0;points=[];autosize=1;strokeColor=none;fillColor=none;" vertex="1" parent="1">
          <mxGeometry x="590" y="-3360" width="410" height="40" as="geometry" />
        </mxCell>
        <mxCell id="mB4tVl4yTqJX-YMwdEVt-174" style="edgeStyle=orthogonalEdgeStyle;rounded=0;orthogonalLoop=1;jettySize=auto;html=1;" edge="1" parent="1" source="mB4tVl4yTqJX-YMwdEVt-60" target="mB4tVl4yTqJX-YMwdEVt-106">
          <mxGeometry relative="1" as="geometry">
            <Array as="points">
              <mxPoint x="-1060" y="-3680" />
              <mxPoint x="-300" y="-3680" />
            </Array>
          </mxGeometry>
        </mxCell>
        <mxCell id="mB4tVl4yTqJX-YMwdEVt-60" value="&lt;&lt;abstract&gt;&gt;&#xa;Armadura" style="swimlane;fontStyle=0;align=center;verticalAlign=top;childLayout=stackLayout;horizontal=1;startSize=40;horizontalStack=0;resizeParent=1;resizeLast=0;collapsible=1;marginBottom=0;rounded=0;shadow=0;strokeWidth=1;fillColor=#fff2cc;strokeColor=#d6b656;" vertex="1" parent="1">
          <mxGeometry x="-1220" y="-3640" width="260" height="80" as="geometry">
            <mxRectangle x="110" y="-20" width="160" height="26" as="alternateBounds" />
          </mxGeometry>
        </mxCell>
        <mxCell id="mB4tVl4yTqJX-YMwdEVt-64" value="" style="line;html=1;strokeWidth=1;align=left;verticalAlign=middle;spacingTop=-1;spacingLeft=3;spacingRight=3;rotatable=0;labelPosition=right;points=[];portConstraint=eastwest;" vertex="1" parent="mB4tVl4yTqJX-YMwdEVt-60">
          <mxGeometry y="40" width="260" height="8" as="geometry" />
        </mxCell>
        <mxCell id="mB4tVl4yTqJX-YMwdEVt-62" value="+ &lt;&lt;abstract&gt;&gt;Â recibirAtaque( Integer danio )&#xa;" style="text;align=left;verticalAlign=top;spacingLeft=4;spacingRight=4;overflow=hidden;rotatable=0;points=[[0,0.5],[1,0.5]];portConstraint=eastwest;rounded=0;shadow=0;html=0;" vertex="1" parent="mB4tVl4yTqJX-YMwdEVt-60">
          <mxGeometry y="48" width="260" height="24" as="geometry" />
        </mxCell>
        <mxCell id="mB4tVl4yTqJX-YMwdEVt-65" value="PersonajeFactory" style="swimlane;fontStyle=0;align=center;verticalAlign=top;childLayout=stackLayout;horizontal=1;startSize=30;horizontalStack=0;resizeParent=1;resizeLast=0;collapsible=1;marginBottom=0;rounded=0;shadow=0;strokeWidth=1;fillColor=#fff2cc;strokeColor=#d6b656;" vertex="1" parent="1">
          <mxGeometry x="-440" y="-4360" width="280" height="80" as="geometry">
            <mxRectangle x="110" y="-20" width="160" height="26" as="alternateBounds" />
          </mxGeometry>
        </mxCell>
        <mxCell id="mB4tVl4yTqJX-YMwdEVt-69" value="" style="line;html=1;strokeWidth=1;align=left;verticalAlign=middle;spacingTop=-1;spacingLeft=3;spacingRight=3;rotatable=0;labelPosition=right;points=[];portConstraint=eastwest;" vertex="1" parent="mB4tVl4yTqJX-YMwdEVt-65">
          <mxGeometry y="30" width="280" height="8" as="geometry" />
        </mxCell>
        <mxCell id="mB4tVl4yTqJX-YMwdEVt-100" value="+ &lt;&lt;abstract&gt;&gt; crearPersonaje() : Personaje" style="text;align=left;verticalAlign=top;spacingLeft=4;spacingRight=4;overflow=hidden;rotatable=0;points=[[0,0.5],[1,0.5]];portConstraint=eastwest;rounded=0;shadow=0;html=0;" vertex="1" parent="mB4tVl4yTqJX-YMwdEVt-65">
          <mxGeometry y="38" width="280" height="24" as="geometry" />
        </mxCell>
        <mxCell id="mB4tVl4yTqJX-YMwdEVt-92" style="edgeStyle=orthogonalEdgeStyle;rounded=0;orthogonalLoop=1;jettySize=auto;html=1;endSize=12;startSize=12;endArrow=block;endFill=0;" edge="1" parent="1" source="mB4tVl4yTqJX-YMwdEVt-70" target="mB4tVl4yTqJX-YMwdEVt-65">
          <mxGeometry relative="1" as="geometry" />
        </mxCell>
        <mxCell id="mB4tVl4yTqJX-YMwdEVt-143" style="edgeStyle=orthogonalEdgeStyle;rounded=0;orthogonalLoop=1;jettySize=auto;html=1;endSize=12;startSize=12;dashed=1;dashPattern=8 8;" edge="1" parent="1" source="mB4tVl4yTqJX-YMwdEVt-70" target="mB4tVl4yTqJX-YMwdEVt-106">
          <mxGeometry relative="1" as="geometry" />
        </mxCell>
        <mxCell id="mB4tVl4yTqJX-YMwdEVt-70" value="ArqueroFactory" style="swimlane;fontStyle=0;align=center;verticalAlign=top;childLayout=stackLayout;horizontal=1;startSize=30;horizontalStack=0;resizeParent=1;resizeLast=0;collapsible=1;marginBottom=0;rounded=0;shadow=0;strokeWidth=1;fillColor=#fff2cc;strokeColor=#d6b656;" vertex="1" parent="1">
          <mxGeometry x="-400" y="-4120" width="200" height="80" as="geometry">
            <mxRectangle x="110" y="-20" width="160" height="26" as="alternateBounds" />
          </mxGeometry>
        </mxCell>
        <mxCell id="mB4tVl4yTqJX-YMwdEVt-74" value="" style="line;html=1;strokeWidth=1;align=left;verticalAlign=middle;spacingTop=-1;spacingLeft=3;spacingRight=3;rotatable=0;labelPosition=right;points=[];portConstraint=eastwest;" vertex="1" parent="mB4tVl4yTqJX-YMwdEVt-70">
          <mxGeometry y="30" width="200" height="8" as="geometry" />
        </mxCell>
        <mxCell id="mB4tVl4yTqJX-YMwdEVt-102" value="+ crearPersonaje() : Personaje" style="text;align=left;verticalAlign=top;spacingLeft=4;spacingRight=4;overflow=hidden;rotatable=0;points=[[0,0.5],[1,0.5]];portConstraint=eastwest;rounded=0;shadow=0;html=0;" vertex="1" parent="mB4tVl4yTqJX-YMwdEVt-70">
          <mxGeometry y="38" width="200" height="24" as="geometry" />
        </mxCell>
        <mxCell id="mB4tVl4yTqJX-YMwdEVt-75" value="&lt;b&gt;&lt;i&gt;&lt;font style=&quot;font-size: 16px;&quot;&gt;Creator&lt;/font&gt;&lt;/i&gt;&lt;/b&gt;" style="text;html=1;align=center;verticalAlign=middle;whiteSpace=wrap;rounded=0;fontSize=14;" vertex="1" parent="1">
          <mxGeometry x="-440" y="-4380" width="60" height="20" as="geometry" />
        </mxCell>
        <mxCell id="mB4tVl4yTqJX-YMwdEVt-76" value="&lt;b&gt;&lt;i&gt;Concrete Creator&lt;/i&gt;&lt;/b&gt;" style="text;html=1;align=center;verticalAlign=middle;whiteSpace=wrap;rounded=0;fontSize=14;" vertex="1" parent="1">
          <mxGeometry x="-400" y="-4155" width="80" height="35" as="geometry" />
        </mxCell>
        <mxCell id="mB4tVl4yTqJX-YMwdEVt-118" style="edgeStyle=orthogonalEdgeStyle;rounded=0;orthogonalLoop=1;jettySize=auto;html=1;endSize=12;startSize=12;endArrow=block;endFill=0;" edge="1" parent="1" source="mB4tVl4yTqJX-YMwdEVt-79" target="mB4tVl4yTqJX-YMwdEVt-65">
          <mxGeometry relative="1" as="geometry">
            <Array as="points">
              <mxPoint x="-540" y="-4200" />
              <mxPoint x="-300" y="-4200" />
            </Array>
          </mxGeometry>
        </mxCell>
        <mxCell id="mB4tVl4yTqJX-YMwdEVt-141" style="edgeStyle=orthogonalEdgeStyle;rounded=0;orthogonalLoop=1;jettySize=auto;html=1;endSize=12;startSize=12;dashed=1;dashPattern=8 8;" edge="1" parent="1" source="mB4tVl4yTqJX-YMwdEVt-79" target="mB4tVl4yTqJX-YMwdEVt-106">
          <mxGeometry relative="1" as="geometry">
            <Array as="points">
              <mxPoint x="-540" y="-3960" />
              <mxPoint x="-300" y="-3960" />
            </Array>
          </mxGeometry>
        </mxCell>
        <mxCell id="mB4tVl4yTqJX-YMwdEVt-79" value="GuerreroFactory" style="swimlane;fontStyle=0;align=center;verticalAlign=top;childLayout=stackLayout;horizontal=1;startSize=30;horizontalStack=0;resizeParent=1;resizeLast=0;collapsible=1;marginBottom=0;rounded=0;shadow=0;strokeWidth=1;fillColor=#fff2cc;strokeColor=#d6b656;" vertex="1" parent="1">
          <mxGeometry x="-640" y="-4120" width="200" height="80" as="geometry">
            <mxRectangle x="110" y="-20" width="160" height="26" as="alternateBounds" />
          </mxGeometry>
        </mxCell>
        <mxCell id="mB4tVl4yTqJX-YMwdEVt-83" value="" style="line;html=1;strokeWidth=1;align=left;verticalAlign=middle;spacingTop=-1;spacingLeft=3;spacingRight=3;rotatable=0;labelPosition=right;points=[];portConstraint=eastwest;" vertex="1" parent="mB4tVl4yTqJX-YMwdEVt-79">
          <mxGeometry y="30" width="200" height="8" as="geometry" />
        </mxCell>
        <mxCell id="mB4tVl4yTqJX-YMwdEVt-101" value="+ crearPersonaje() : Personaje" style="text;align=left;verticalAlign=top;spacingLeft=4;spacingRight=4;overflow=hidden;rotatable=0;points=[[0,0.5],[1,0.5]];portConstraint=eastwest;rounded=0;shadow=0;html=0;" vertex="1" parent="mB4tVl4yTqJX-YMwdEVt-79">
          <mxGeometry y="38" width="200" height="24" as="geometry" />
        </mxCell>
        <mxCell id="mB4tVl4yTqJX-YMwdEVt-117" style="edgeStyle=orthogonalEdgeStyle;rounded=0;orthogonalLoop=1;jettySize=auto;html=1;endSize=12;startSize=12;endArrow=block;endFill=0;" edge="1" parent="1" source="mB4tVl4yTqJX-YMwdEVt-85" target="mB4tVl4yTqJX-YMwdEVt-65">
          <mxGeometry relative="1" as="geometry">
            <Array as="points">
              <mxPoint x="-60" y="-4200" />
              <mxPoint x="-300" y="-4200" />
            </Array>
          </mxGeometry>
        </mxCell>
        <mxCell id="mB4tVl4yTqJX-YMwdEVt-142" style="edgeStyle=orthogonalEdgeStyle;rounded=0;orthogonalLoop=1;jettySize=auto;html=1;endSize=12;startSize=12;dashed=1;dashPattern=8 8;" edge="1" parent="1" source="mB4tVl4yTqJX-YMwdEVt-85" target="mB4tVl4yTqJX-YMwdEVt-106">
          <mxGeometry relative="1" as="geometry">
            <Array as="points">
              <mxPoint x="-60" y="-3960" />
              <mxPoint x="-300" y="-3960" />
            </Array>
          </mxGeometry>
        </mxCell>
        <mxCell id="mB4tVl4yTqJX-YMwdEVt-85" value="MagoFactory" style="swimlane;fontStyle=0;align=center;verticalAlign=top;childLayout=stackLayout;horizontal=1;startSize=30;horizontalStack=0;resizeParent=1;resizeLast=0;collapsible=1;marginBottom=0;rounded=0;shadow=0;strokeWidth=1;fillColor=#fff2cc;strokeColor=#d6b656;" vertex="1" parent="1">
          <mxGeometry x="-160" y="-4120" width="200" height="80" as="geometry">
            <mxRectangle x="110" y="-20" width="160" height="26" as="alternateBounds" />
          </mxGeometry>
        </mxCell>
        <mxCell id="mB4tVl4yTqJX-YMwdEVt-89" value="" style="line;html=1;strokeWidth=1;align=left;verticalAlign=middle;spacingTop=-1;spacingLeft=3;spacingRight=3;rotatable=0;labelPosition=right;points=[];portConstraint=eastwest;" vertex="1" parent="mB4tVl4yTqJX-YMwdEVt-85">
          <mxGeometry y="30" width="200" height="8" as="geometry" />
        </mxCell>
        <mxCell id="mB4tVl4yTqJX-YMwdEVt-103" value="+ crearPersonaje() : Personaje" style="text;align=left;verticalAlign=top;spacingLeft=4;spacingRight=4;overflow=hidden;rotatable=0;points=[[0,0.5],[1,0.5]];portConstraint=eastwest;rounded=0;shadow=0;html=0;" vertex="1" parent="mB4tVl4yTqJX-YMwdEVt-85">
          <mxGeometry y="38" width="200" height="24" as="geometry" />
        </mxCell>
        <mxCell id="mB4tVl4yTqJX-YMwdEVt-104" value="&lt;b&gt;&lt;i&gt;Concrete Creator&lt;/i&gt;&lt;/b&gt;" style="text;html=1;align=center;verticalAlign=middle;whiteSpace=wrap;rounded=0;fontSize=14;" vertex="1" parent="1">
          <mxGeometry x="-640" y="-4155" width="80" height="35" as="geometry" />
        </mxCell>
        <mxCell id="mB4tVl4yTqJX-YMwdEVt-105" value="&lt;b&gt;&lt;i&gt;Concrete Creator&lt;/i&gt;&lt;/b&gt;" style="text;html=1;align=center;verticalAlign=middle;whiteSpace=wrap;rounded=0;fontSize=14;" vertex="1" parent="1">
          <mxGeometry x="-160" y="-4155" width="80" height="35" as="geometry" />
        </mxCell>
        <mxCell id="mB4tVl4yTqJX-YMwdEVt-106" value="Personaje" style="swimlane;fontStyle=0;align=center;verticalAlign=top;childLayout=stackLayout;horizontal=1;startSize=30;horizontalStack=0;resizeParent=1;resizeLast=0;collapsible=1;marginBottom=0;rounded=0;shadow=0;strokeWidth=1;fillColor=#fff2cc;strokeColor=#d6b656;" vertex="1" parent="1">
          <mxGeometry x="-420" y="-3870" width="240" height="130" as="geometry">
            <mxRectangle x="110" y="-20" width="160" height="26" as="alternateBounds" />
          </mxGeometry>
        </mxCell>
        <mxCell id="mB4tVl4yTqJX-YMwdEVt-119" value="- vida : Integer" style="text;align=left;verticalAlign=top;spacingLeft=4;spacingRight=4;overflow=hidden;rotatable=0;points=[[0,0.5],[1,0.5]];portConstraint=eastwest;rounded=0;shadow=0;html=0;" vertex="1" parent="mB4tVl4yTqJX-YMwdEVt-106">
          <mxGeometry y="30" width="240" height="24" as="geometry" />
        </mxCell>
        <mxCell id="mB4tVl4yTqJX-YMwdEVt-107" value="" style="line;html=1;strokeWidth=1;align=left;verticalAlign=middle;spacingTop=-1;spacingLeft=3;spacingRight=3;rotatable=0;labelPosition=right;points=[];portConstraint=eastwest;" vertex="1" parent="mB4tVl4yTqJX-YMwdEVt-106">
          <mxGeometry y="54" width="240" height="8" as="geometry" />
        </mxCell>
        <mxCell id="mB4tVl4yTqJX-YMwdEVt-198" value="+Â atacar( Personaje enemigo )&#xa;" style="text;align=left;verticalAlign=top;spacingLeft=4;spacingRight=4;overflow=hidden;rotatable=0;points=[[0,0.5],[1,0.5]];portConstraint=eastwest;rounded=0;shadow=0;html=0;" vertex="1" parent="mB4tVl4yTqJX-YMwdEVt-106">
          <mxGeometry y="62" width="240" height="24" as="geometry" />
        </mxCell>
        <mxCell id="mB4tVl4yTqJX-YMwdEVt-108" value="+Â recibirAtaque( int danio )" style="text;align=left;verticalAlign=top;spacingLeft=4;spacingRight=4;overflow=hidden;rotatable=0;points=[[0,0.5],[1,0.5]];portConstraint=eastwest;rounded=0;shadow=0;html=0;" vertex="1" parent="mB4tVl4yTqJX-YMwdEVt-106">
          <mxGeometry y="86" width="240" height="24" as="geometry" />
        </mxCell>
        <mxCell id="mB4tVl4yTqJX-YMwdEVt-109" value="&lt;b&gt;&lt;i&gt;Concrete Product&lt;/i&gt;&lt;/b&gt;" style="text;html=1;align=center;verticalAlign=middle;whiteSpace=wrap;rounded=0;fontSize=14;" vertex="1" parent="1">
          <mxGeometry x="-420" y="-3910" width="80" height="40" as="geometry" />
        </mxCell>
        <mxCell id="mB4tVl4yTqJX-YMwdEVt-137" style="edgeStyle=orthogonalEdgeStyle;rounded=0;orthogonalLoop=1;jettySize=auto;html=1;endSize=12;startSize=12;endArrow=block;endFill=0;" edge="1" parent="1" source="mB4tVl4yTqJX-YMwdEVt-120">
          <mxGeometry relative="1" as="geometry">
            <mxPoint x="-1090" y="-3560" as="targetPoint" />
            <Array as="points">
              <mxPoint x="-1310" y="-3520" />
              <mxPoint x="-1090" y="-3520" />
            </Array>
          </mxGeometry>
        </mxCell>
        <mxCell id="mB4tVl4yTqJX-YMwdEVt-120" value="ArmaduraDeCuero" style="swimlane;fontStyle=0;align=center;verticalAlign=top;childLayout=stackLayout;horizontal=1;startSize=30;horizontalStack=0;resizeParent=1;resizeLast=0;collapsible=1;marginBottom=0;rounded=0;shadow=0;strokeWidth=1;fillColor=#fff2cc;strokeColor=#d6b656;" vertex="1" parent="1">
          <mxGeometry x="-1400" y="-3480" width="180" height="80" as="geometry">
            <mxRectangle x="110" y="-20" width="160" height="26" as="alternateBounds" />
          </mxGeometry>
        </mxCell>
        <mxCell id="mB4tVl4yTqJX-YMwdEVt-122" value="" style="line;html=1;strokeWidth=1;align=left;verticalAlign=middle;spacingTop=-1;spacingLeft=3;spacingRight=3;rotatable=0;labelPosition=right;points=[];portConstraint=eastwest;" vertex="1" parent="mB4tVl4yTqJX-YMwdEVt-120">
          <mxGeometry y="30" width="180" height="8" as="geometry" />
        </mxCell>
        <mxCell id="mB4tVl4yTqJX-YMwdEVt-126" value="+ recibirAtaque( Integer danio )" style="text;align=left;verticalAlign=top;spacingLeft=4;spacingRight=4;overflow=hidden;rotatable=0;points=[[0,0.5],[1,0.5]];portConstraint=eastwest;rounded=0;shadow=0;html=0;" vertex="1" parent="mB4tVl4yTqJX-YMwdEVt-120">
          <mxGeometry y="38" width="180" height="24" as="geometry" />
        </mxCell>
        <mxCell id="mB4tVl4yTqJX-YMwdEVt-139" style="edgeStyle=orthogonalEdgeStyle;rounded=0;orthogonalLoop=1;jettySize=auto;html=1;endSize=12;startSize=12;endArrow=block;endFill=0;" edge="1" parent="1" source="mB4tVl4yTqJX-YMwdEVt-131">
          <mxGeometry relative="1" as="geometry">
            <mxPoint x="-1090" y="-3560" as="targetPoint" />
          </mxGeometry>
        </mxCell>
        <mxCell id="mB4tVl4yTqJX-YMwdEVt-131" value="ArmaduraDeHierro" style="swimlane;fontStyle=0;align=center;verticalAlign=top;childLayout=stackLayout;horizontal=1;startSize=30;horizontalStack=0;resizeParent=1;resizeLast=0;collapsible=1;marginBottom=0;rounded=0;shadow=0;strokeWidth=1;fillColor=#fff2cc;strokeColor=#d6b656;" vertex="1" parent="1">
          <mxGeometry x="-1180" y="-3480" width="180" height="80" as="geometry">
            <mxRectangle x="110" y="-20" width="160" height="26" as="alternateBounds" />
          </mxGeometry>
        </mxCell>
        <mxCell id="mB4tVl4yTqJX-YMwdEVt-132" value="" style="line;html=1;strokeWidth=1;align=left;verticalAlign=middle;spacingTop=-1;spacingLeft=3;spacingRight=3;rotatable=0;labelPosition=right;points=[];portConstraint=eastwest;" vertex="1" parent="mB4tVl4yTqJX-YMwdEVt-131">
          <mxGeometry y="30" width="180" height="8" as="geometry" />
        </mxCell>
        <mxCell id="mB4tVl4yTqJX-YMwdEVt-133" value="+ recibirAtaque( Integer danio )" style="text;align=left;verticalAlign=top;spacingLeft=4;spacingRight=4;overflow=hidden;rotatable=0;points=[[0,0.5],[1,0.5]];portConstraint=eastwest;rounded=0;shadow=0;html=0;" vertex="1" parent="mB4tVl4yTqJX-YMwdEVt-131">
          <mxGeometry y="38" width="180" height="24" as="geometry" />
        </mxCell>
        <mxCell id="mB4tVl4yTqJX-YMwdEVt-138" style="edgeStyle=orthogonalEdgeStyle;rounded=0;orthogonalLoop=1;jettySize=auto;html=1;endSize=12;startSize=12;endArrow=block;endFill=0;" edge="1" parent="1" source="mB4tVl4yTqJX-YMwdEVt-134">
          <mxGeometry relative="1" as="geometry">
            <mxPoint x="-1090" y="-3560" as="targetPoint" />
            <Array as="points">
              <mxPoint x="-870" y="-3520" />
              <mxPoint x="-1090" y="-3520" />
            </Array>
          </mxGeometry>
        </mxCell>
        <mxCell id="mB4tVl4yTqJX-YMwdEVt-134" value="ArmaduraDeAcero" style="swimlane;fontStyle=0;align=center;verticalAlign=top;childLayout=stackLayout;horizontal=1;startSize=30;horizontalStack=0;resizeParent=1;resizeLast=0;collapsible=1;marginBottom=0;rounded=0;shadow=0;strokeWidth=1;fillColor=#fff2cc;strokeColor=#d6b656;" vertex="1" parent="1">
          <mxGeometry x="-960" y="-3480" width="180" height="80" as="geometry">
            <mxRectangle x="110" y="-20" width="160" height="26" as="alternateBounds" />
          </mxGeometry>
        </mxCell>
        <mxCell id="mB4tVl4yTqJX-YMwdEVt-135" value="" style="line;html=1;strokeWidth=1;align=left;verticalAlign=middle;spacingTop=-1;spacingLeft=3;spacingRight=3;rotatable=0;labelPosition=right;points=[];portConstraint=eastwest;" vertex="1" parent="mB4tVl4yTqJX-YMwdEVt-134">
          <mxGeometry y="30" width="180" height="8" as="geometry" />
        </mxCell>
        <mxCell id="mB4tVl4yTqJX-YMwdEVt-136" value="+ recibirAtaque( Integer danio )" style="text;align=left;verticalAlign=top;spacingLeft=4;spacingRight=4;overflow=hidden;rotatable=0;points=[[0,0.5],[1,0.5]];portConstraint=eastwest;rounded=0;shadow=0;html=0;" vertex="1" parent="mB4tVl4yTqJX-YMwdEVt-134">
          <mxGeometry y="38" width="180" height="24" as="geometry" />
        </mxCell>
        <mxCell id="mB4tVl4yTqJX-YMwdEVt-175" style="edgeStyle=orthogonalEdgeStyle;rounded=0;orthogonalLoop=1;jettySize=auto;html=1;" edge="1" parent="1" source="mB4tVl4yTqJX-YMwdEVt-144" target="mB4tVl4yTqJX-YMwdEVt-106">
          <mxGeometry relative="1" as="geometry" />
        </mxCell>
        <mxCell id="mB4tVl4yTqJX-YMwdEVt-144" value="&lt;&lt;abstract&gt;&gt;&#xa;Arma" style="swimlane;fontStyle=0;align=center;verticalAlign=top;childLayout=stackLayout;horizontal=1;startSize=40;horizontalStack=0;resizeParent=1;resizeLast=0;collapsible=1;marginBottom=0;rounded=0;shadow=0;strokeWidth=1;fillColor=#fff2cc;strokeColor=#d6b656;" vertex="1" parent="1">
          <mxGeometry x="-460" y="-3640" width="320" height="80" as="geometry">
            <mxRectangle x="110" y="-20" width="160" height="26" as="alternateBounds" />
          </mxGeometry>
        </mxCell>
        <mxCell id="mB4tVl4yTqJX-YMwdEVt-146" value="" style="line;html=1;strokeWidth=1;align=left;verticalAlign=middle;spacingTop=-1;spacingLeft=3;spacingRight=3;rotatable=0;labelPosition=right;points=[];portConstraint=eastwest;" vertex="1" parent="mB4tVl4yTqJX-YMwdEVt-144">
          <mxGeometry y="40" width="320" height="8" as="geometry" />
        </mxCell>
        <mxCell id="mB4tVl4yTqJX-YMwdEVt-145" value="+ &lt;&lt;abstract&gt;&gt; golpear( Armadura armadura ) : Integer" style="text;align=left;verticalAlign=top;spacingLeft=4;spacingRight=4;overflow=hidden;rotatable=0;points=[[0,0.5],[1,0.5]];portConstraint=eastwest;rounded=0;shadow=0;html=0;" vertex="1" parent="mB4tVl4yTqJX-YMwdEVt-144">
          <mxGeometry y="48" width="320" height="24" as="geometry" />
        </mxCell>
        <mxCell id="mB4tVl4yTqJX-YMwdEVt-147" style="edgeStyle=orthogonalEdgeStyle;rounded=0;orthogonalLoop=1;jettySize=auto;html=1;endSize=12;startSize=12;endArrow=block;endFill=0;" edge="1" parent="1" source="mB4tVl4yTqJX-YMwdEVt-148" target="mB4tVl4yTqJX-YMwdEVt-144">
          <mxGeometry relative="1" as="geometry">
            <Array as="points">
              <mxPoint x="-580" y="-3520" />
              <mxPoint x="-300" y="-3520" />
            </Array>
          </mxGeometry>
        </mxCell>
        <mxCell id="mB4tVl4yTqJX-YMwdEVt-148" value="Espada" style="swimlane;fontStyle=0;align=center;verticalAlign=top;childLayout=stackLayout;horizontal=1;startSize=30;horizontalStack=0;resizeParent=1;resizeLast=0;collapsible=1;marginBottom=0;rounded=0;shadow=0;strokeWidth=1;fillColor=#fff2cc;strokeColor=#d6b656;" vertex="1" parent="1">
          <mxGeometry x="-700" y="-3480" width="240" height="80" as="geometry">
            <mxRectangle x="110" y="-20" width="160" height="26" as="alternateBounds" />
          </mxGeometry>
        </mxCell>
        <mxCell id="mB4tVl4yTqJX-YMwdEVt-149" value="" style="line;html=1;strokeWidth=1;align=left;verticalAlign=middle;spacingTop=-1;spacingLeft=3;spacingRight=3;rotatable=0;labelPosition=right;points=[];portConstraint=eastwest;" vertex="1" parent="mB4tVl4yTqJX-YMwdEVt-148">
          <mxGeometry y="30" width="240" height="8" as="geometry" />
        </mxCell>
        <mxCell id="mB4tVl4yTqJX-YMwdEVt-150" value="+Â golpear( Armadura armadura ) : Integer" style="text;align=left;verticalAlign=top;spacingLeft=4;spacingRight=4;overflow=hidden;rotatable=0;points=[[0,0.5],[1,0.5]];portConstraint=eastwest;rounded=0;shadow=0;html=0;" vertex="1" parent="mB4tVl4yTqJX-YMwdEVt-148">
          <mxGeometry y="38" width="240" height="24" as="geometry" />
        </mxCell>
        <mxCell id="mB4tVl4yTqJX-YMwdEVt-151" style="edgeStyle=orthogonalEdgeStyle;rounded=0;orthogonalLoop=1;jettySize=auto;html=1;endSize=12;startSize=12;endArrow=block;endFill=0;" edge="1" parent="1" source="mB4tVl4yTqJX-YMwdEVt-152" target="mB4tVl4yTqJX-YMwdEVt-144">
          <mxGeometry relative="1" as="geometry" />
        </mxCell>
        <mxCell id="mB4tVl4yTqJX-YMwdEVt-152" value="Arco" style="swimlane;fontStyle=0;align=center;verticalAlign=top;childLayout=stackLayout;horizontal=1;startSize=30;horizontalStack=0;resizeParent=1;resizeLast=0;collapsible=1;marginBottom=0;rounded=0;shadow=0;strokeWidth=1;fillColor=#fff2cc;strokeColor=#d6b656;" vertex="1" parent="1">
          <mxGeometry x="-420" y="-3480" width="240" height="80" as="geometry">
            <mxRectangle x="110" y="-20" width="160" height="26" as="alternateBounds" />
          </mxGeometry>
        </mxCell>
        <mxCell id="mB4tVl4yTqJX-YMwdEVt-153" value="" style="line;html=1;strokeWidth=1;align=left;verticalAlign=middle;spacingTop=-1;spacingLeft=3;spacingRight=3;rotatable=0;labelPosition=right;points=[];portConstraint=eastwest;" vertex="1" parent="mB4tVl4yTqJX-YMwdEVt-152">
          <mxGeometry y="30" width="240" height="8" as="geometry" />
        </mxCell>
        <mxCell id="mB4tVl4yTqJX-YMwdEVt-154" value="+Â golpear( Armadura armadura ) : Integer" style="text;align=left;verticalAlign=top;spacingLeft=4;spacingRight=4;overflow=hidden;rotatable=0;points=[[0,0.5],[1,0.5]];portConstraint=eastwest;rounded=0;shadow=0;html=0;" vertex="1" parent="mB4tVl4yTqJX-YMwdEVt-152">
          <mxGeometry y="38" width="240" height="24" as="geometry" />
        </mxCell>
        <mxCell id="mB4tVl4yTqJX-YMwdEVt-155" style="edgeStyle=orthogonalEdgeStyle;rounded=0;orthogonalLoop=1;jettySize=auto;html=1;endSize=12;startSize=12;endArrow=block;endFill=0;" edge="1" parent="1" source="mB4tVl4yTqJX-YMwdEVt-156" target="mB4tVl4yTqJX-YMwdEVt-144">
          <mxGeometry relative="1" as="geometry">
            <Array as="points">
              <mxPoint x="-20" y="-3520" />
              <mxPoint x="-300" y="-3520" />
            </Array>
          </mxGeometry>
        </mxCell>
        <mxCell id="mB4tVl4yTqJX-YMwdEVt-156" value="Baston" style="swimlane;fontStyle=0;align=center;verticalAlign=top;childLayout=stackLayout;horizontal=1;startSize=30;horizontalStack=0;resizeParent=1;resizeLast=0;collapsible=1;marginBottom=0;rounded=0;shadow=0;strokeWidth=1;fillColor=#fff2cc;strokeColor=#d6b656;" vertex="1" parent="1">
          <mxGeometry x="-140" y="-3480" width="240" height="80" as="geometry">
            <mxRectangle x="110" y="-20" width="160" height="26" as="alternateBounds" />
          </mxGeometry>
        </mxCell>
        <mxCell id="mB4tVl4yTqJX-YMwdEVt-157" value="" style="line;html=1;strokeWidth=1;align=left;verticalAlign=middle;spacingTop=-1;spacingLeft=3;spacingRight=3;rotatable=0;labelPosition=right;points=[];portConstraint=eastwest;" vertex="1" parent="mB4tVl4yTqJX-YMwdEVt-156">
          <mxGeometry y="30" width="240" height="8" as="geometry" />
        </mxCell>
        <mxCell id="mB4tVl4yTqJX-YMwdEVt-158" value="+Â golpear( Armadura armadura ) : Integer" style="text;align=left;verticalAlign=top;spacingLeft=4;spacingRight=4;overflow=hidden;rotatable=0;points=[[0,0.5],[1,0.5]];portConstraint=eastwest;rounded=0;shadow=0;html=0;" vertex="1" parent="mB4tVl4yTqJX-YMwdEVt-156">
          <mxGeometry y="38" width="240" height="24" as="geometry" />
        </mxCell>
        <mxCell id="mB4tVl4yTqJX-YMwdEVt-176" style="edgeStyle=orthogonalEdgeStyle;rounded=0;orthogonalLoop=1;jettySize=auto;html=1;" edge="1" parent="1" source="mB4tVl4yTqJX-YMwdEVt-159" target="mB4tVl4yTqJX-YMwdEVt-106">
          <mxGeometry relative="1" as="geometry">
            <Array as="points">
              <mxPoint x="560" y="-3680" />
              <mxPoint x="-300" y="-3680" />
            </Array>
          </mxGeometry>
        </mxCell>
        <mxCell id="mB4tVl4yTqJX-YMwdEVt-159" value="&lt;&lt;interface&gt;&gt;&#xa;Habilidad" style="swimlane;fontStyle=0;align=center;verticalAlign=top;childLayout=stackLayout;horizontal=1;startSize=40;horizontalStack=0;resizeParent=1;resizeLast=0;collapsible=1;marginBottom=0;rounded=0;shadow=0;strokeWidth=1;fillColor=#fff2cc;strokeColor=#d6b656;" vertex="1" parent="1">
          <mxGeometry x="480" y="-3650" width="160" height="90" as="geometry">
            <mxRectangle x="110" y="-20" width="160" height="26" as="alternateBounds" />
          </mxGeometry>
        </mxCell>
        <mxCell id="mB4tVl4yTqJX-YMwdEVt-161" value="" style="line;html=1;strokeWidth=1;align=left;verticalAlign=middle;spacingTop=-1;spacingLeft=3;spacingRight=3;rotatable=0;labelPosition=right;points=[];portConstraint=eastwest;" vertex="1" parent="mB4tVl4yTqJX-YMwdEVt-159">
          <mxGeometry y="40" width="160" height="8" as="geometry" />
        </mxCell>
        <mxCell id="mB4tVl4yTqJX-YMwdEVt-185" style="edgeStyle=orthogonalEdgeStyle;rounded=0;orthogonalLoop=1;jettySize=auto;html=1;endSize=12;startSize=12;endArrow=block;endFill=0;" edge="1" parent="1" source="mB4tVl4yTqJX-YMwdEVt-182" target="mB4tVl4yTqJX-YMwdEVt-159">
          <mxGeometry relative="1" as="geometry">
            <Array as="points">
              <mxPoint x="260" y="-3520" />
              <mxPoint x="560" y="-3520" />
            </Array>
          </mxGeometry>
        </mxCell>
        <mxCell id="mB4tVl4yTqJX-YMwdEVt-182" value="CuerpoACuerpo" style="swimlane;fontStyle=0;align=center;verticalAlign=top;childLayout=stackLayout;horizontal=1;startSize=40;horizontalStack=0;resizeParent=1;resizeLast=0;collapsible=1;marginBottom=0;rounded=0;shadow=0;strokeWidth=1;fillColor=#fff2cc;strokeColor=#d6b656;" vertex="1" parent="1">
          <mxGeometry x="180" y="-3480" width="160" height="80" as="geometry">
            <mxRectangle x="110" y="-20" width="160" height="26" as="alternateBounds" />
          </mxGeometry>
        </mxCell>
        <mxCell id="mB4tVl4yTqJX-YMwdEVt-184" value="" style="line;html=1;strokeWidth=1;align=left;verticalAlign=middle;spacingTop=-1;spacingLeft=3;spacingRight=3;rotatable=0;labelPosition=right;points=[];portConstraint=eastwest;" vertex="1" parent="mB4tVl4yTqJX-YMwdEVt-182">
          <mxGeometry y="40" width="160" height="8" as="geometry" />
        </mxCell>
        <mxCell id="mB4tVl4yTqJX-YMwdEVt-197" style="edgeStyle=orthogonalEdgeStyle;rounded=0;orthogonalLoop=1;jettySize=auto;html=1;endSize=12;startSize=12;endArrow=block;endFill=0;" edge="1" parent="1" source="mB4tVl4yTqJX-YMwdEVt-186" target="mB4tVl4yTqJX-YMwdEVt-159">
          <mxGeometry relative="1" as="geometry">
            <Array as="points">
              <mxPoint x="460" y="-3520" />
              <mxPoint x="560" y="-3520" />
            </Array>
          </mxGeometry>
        </mxCell>
        <mxCell id="mB4tVl4yTqJX-YMwdEVt-186" value="Distancia" style="swimlane;fontStyle=0;align=center;verticalAlign=top;childLayout=stackLayout;horizontal=1;startSize=40;horizontalStack=0;resizeParent=1;resizeLast=0;collapsible=1;marginBottom=0;rounded=0;shadow=0;strokeWidth=1;fillColor=#fff2cc;strokeColor=#d6b656;" vertex="1" parent="1">
          <mxGeometry x="380" y="-3480" width="160" height="80" as="geometry">
            <mxRectangle x="110" y="-20" width="160" height="26" as="alternateBounds" />
          </mxGeometry>
        </mxCell>
        <mxCell id="mB4tVl4yTqJX-YMwdEVt-188" value="" style="line;html=1;strokeWidth=1;align=left;verticalAlign=middle;spacingTop=-1;spacingLeft=3;spacingRight=3;rotatable=0;labelPosition=right;points=[];portConstraint=eastwest;" vertex="1" parent="mB4tVl4yTqJX-YMwdEVt-186">
          <mxGeometry y="40" width="160" height="8" as="geometry" />
        </mxCell>
        <mxCell id="mB4tVl4yTqJX-YMwdEVt-196" style="edgeStyle=orthogonalEdgeStyle;rounded=0;orthogonalLoop=1;jettySize=auto;html=1;endSize=12;startSize=12;endArrow=block;endFill=0;" edge="1" parent="1" source="mB4tVl4yTqJX-YMwdEVt-189" target="mB4tVl4yTqJX-YMwdEVt-159">
          <mxGeometry relative="1" as="geometry">
            <Array as="points">
              <mxPoint x="660" y="-3520" />
              <mxPoint x="560" y="-3520" />
            </Array>
          </mxGeometry>
        </mxCell>
        <mxCell id="mB4tVl4yTqJX-YMwdEVt-189" value="Curacion" style="swimlane;fontStyle=0;align=center;verticalAlign=top;childLayout=stackLayout;horizontal=1;startSize=40;horizontalStack=0;resizeParent=1;resizeLast=0;collapsible=1;marginBottom=0;rounded=0;shadow=0;strokeWidth=1;fillColor=#fff2cc;strokeColor=#d6b656;" vertex="1" parent="1">
          <mxGeometry x="580" y="-3480" width="160" height="80" as="geometry">
            <mxRectangle x="110" y="-20" width="160" height="26" as="alternateBounds" />
          </mxGeometry>
        </mxCell>
        <mxCell id="mB4tVl4yTqJX-YMwdEVt-191" value="" style="line;html=1;strokeWidth=1;align=left;verticalAlign=middle;spacingTop=-1;spacingLeft=3;spacingRight=3;rotatable=0;labelPosition=right;points=[];portConstraint=eastwest;" vertex="1" parent="mB4tVl4yTqJX-YMwdEVt-189">
          <mxGeometry y="40" width="160" height="8" as="geometry" />
        </mxCell>
        <mxCell id="mB4tVl4yTqJX-YMwdEVt-195" style="edgeStyle=orthogonalEdgeStyle;rounded=0;orthogonalLoop=1;jettySize=auto;html=1;endSize=12;startSize=12;endArrow=block;endFill=0;" edge="1" parent="1" source="mB4tVl4yTqJX-YMwdEVt-192" target="mB4tVl4yTqJX-YMwdEVt-159">
          <mxGeometry relative="1" as="geometry">
            <Array as="points">
              <mxPoint x="860" y="-3520" />
              <mxPoint x="560" y="-3520" />
            </Array>
          </mxGeometry>
        </mxCell>
        <mxCell id="mB4tVl4yTqJX-YMwdEVt-192" value="Magia" style="swimlane;fontStyle=0;align=center;verticalAlign=top;childLayout=stackLayout;horizontal=1;startSize=40;horizontalStack=0;resizeParent=1;resizeLast=0;collapsible=1;marginBottom=0;rounded=0;shadow=0;strokeWidth=1;fillColor=#fff2cc;strokeColor=#d6b656;" vertex="1" parent="1">
          <mxGeometry x="780" y="-3480" width="160" height="80" as="geometry">
            <mxRectangle x="110" y="-20" width="160" height="26" as="alternateBounds" />
          </mxGeometry>
        </mxCell>
        <mxCell id="mB4tVl4yTqJX-YMwdEVt-194" value="" style="line;html=1;strokeWidth=1;align=left;verticalAlign=middle;spacingTop=-1;spacingLeft=3;spacingRight=3;rotatable=0;labelPosition=right;points=[];portConstraint=eastwest;" vertex="1" parent="mB4tVl4yTqJX-YMwdEVt-192">
          <mxGeometry y="40" width="160" height="8" as="geometry" />
        </mxCell>
        <mxCell id="g1_IZ85Sffmr7AwlZ4IF-2" value="&lt;b style=&quot;&quot;&gt;&lt;i&gt;&lt;font style=&quot;font-size: 20px;&quot;&gt;Patron Factory Method&lt;/font&gt;&lt;/i&gt;&lt;/b&gt;" style="text;html=1;align=center;verticalAlign=middle;resizable=0;points=[];autosize=1;strokeColor=none;fillColor=none;" vertex="1" parent="1">
          <mxGeometry x="-1440" y="-4440" width="240" height="40" as="geometry" />
        </mxCell>
      </root>
    </mxGraphModel>
  </diagram>
</mxfile>
